<svg width="317" height="113" viewBox="0 0 317 113" fill="none" xmlns="http://www.w3.org/2000/svg">
<path fill-rule="evenodd" clip-rule="evenodd" d="M37.826 31.1988C33.7184 32.7778 31.6642 34.4462 30.569 37.0898C29.0403 40.7769 29.0403 40.7769 26.0874 36.8849C21.915 31.3834 19.4498 31.4386 18.7935 37.0508C18.408 40.3468 19.0977 42.6502 21.3628 45.6382C24.4591 49.7193 24.4591 49.7193 21.48 54.567C17.0027 61.8555 16.0115 72.8379 19.1531 80.3483C21.5858 86.1609 25.6918 89.6617 27.4643 87.4343C27.959 86.8117 30.2047 85.5818 32.4565 84.6987C35.7261 83.4175 39.6652 83.5207 52.0176 85.2128C66.8407 87.2424 67.7733 87.2161 74.4024 84.5979C78.2056 83.0956 84.3798 79.6059 88.1206 76.8439C95.1497 71.654 103.202 67.8884 106.455 68.2688C107.48 68.3886 108.379 67.9678 108.453 67.3343C108.662 65.5446 91.9724 62.3724 84.9646 62.8704C78.9485 63.2981 78.7177 63.206 79.4881 60.6967C79.9302 59.2547 79.3879 56.583 78.2831 54.7571C76.7165 52.1724 76.6208 50.988 77.8494 49.3954C79.8023 46.8623 79.3681 46.2548 74.8558 45.2012C71.9766 44.5287 71.1512 44.8752 70.6064 46.9857C69.9442 49.5548 65.2894 51.9648 61.7834 51.5548C60.8083 51.4408 59.0073 51.7204 57.7828 52.176C56.5584 52.6316 53.2547 53.8169 50.4407 54.8092C37.4377 59.395 25.0034 67.9157 24.424 72.6394C24.1117 75.1844 23.8271 75.4371 23.0758 73.8389C21.3123 70.0847 23.4116 59.5052 27.1719 53.1887C30.2512 48.0181 31.4935 47.022 35.9171 46.1911C41.4733 45.1454 46.5295 40.5827 49.5927 33.8515C51.3688 29.9469 51.3501 29.9077 47.4703 29.454C45.3169 29.2022 40.977 29.988 37.826 31.1988ZM75.0841 48.5664C75.0483 48.8725 74.3428 49.4526 73.5168 49.8564C72.5866 50.3132 72.4081 50.0779 73.0493 49.24C74.0805 47.8886 75.2069 47.516 75.0841 48.5664Z" fill="#265915"/>
<path fill-rule="evenodd" clip-rule="evenodd" d="M38.2153 30.8907C33.3973 32.5142 30.3239 36.3858 33.5528 36.7634C34.2895 36.8495 34.081 37.8043 33.0258 39.1721C32.0657 40.4195 30.8743 41.1062 30.381 40.7C29.8864 40.2949 29.5182 41.2936 29.5633 42.9216C29.6094 44.6556 30.5821 46.1328 31.9089 46.4897C34.7162 47.2431 43.1935 44.0993 43.0821 42.3461C43.0361 41.6385 44.1519 40.0455 45.56 38.8058C46.9681 37.5661 48.87 35.0602 49.7861 33.2357C51.3896 30.0413 51.3076 29.904 47.5457 29.4909C45.3978 29.2551 41.2 29.8851 38.2153 30.8907ZM19.0418 36.9304C18.8486 39.3374 19.1201 41.0952 19.6457 40.8375C20.1724 40.5799 21.7542 41.6305 23.1619 43.1727C25.0425 45.2335 25.2224 45.9287 23.8408 45.799C22.8062 45.701 21.268 44.8228 20.4233 43.8457C19.5773 42.8696 19.7737 43.4863 20.8588 45.218C21.9452 46.9498 23.542 48.1758 24.4069 47.9424C25.2983 47.7019 24.3622 50.0654 22.2505 53.3894C16.1257 63.0309 15.6209 74.9409 20.9556 83.9372C22.4837 86.5161 27.4233 89.0956 27.6197 87.4167C27.6937 86.7832 29.9065 85.5623 32.5357 84.7028C36.3211 83.4679 40.4604 83.5792 52.401 85.2372C66.8711 87.2446 67.7732 87.2174 74.5539 84.5607C78.4418 83.0364 83.7492 80.1219 86.3482 78.0844C88.9471 76.0469 93.3628 73.1545 96.1622 71.6574C98.9603 70.1615 100.866 68.8919 100.397 68.837C98.7719 68.647 93.8913 71.0472 88.0123 74.9277C84.7644 77.0719 82.643 78.1094 83.2972 77.2335C84.2392 75.9738 83.7004 75.7257 80.7242 76.0505C78.6548 76.2758 76.71 75.8964 76.403 75.2081C75.6599 73.5407 94.4808 67.7891 99.3394 68.1989C101.444 68.3773 102.925 67.9799 102.632 67.3162C102.333 66.6416 103.468 66.644 105.206 67.3222C107.043 68.0401 108.374 68.0106 108.462 67.2511C108.743 64.8531 87.2999 62.08 86.1413 64.3639C85.7032 65.2268 85.8689 65.6764 86.5102 65.362C87.1516 65.0476 88.8588 65.4132 90.304 66.1733C92.5524 67.3542 91.393 67.9348 82.2835 70.1826C71.6773 72.8017 48.6951 76.1236 47.9536 75.1445C47.4084 74.4271 72.3606 68.1119 74.6749 68.3826C75.7141 68.5041 76.2955 68.0001 75.9673 67.2621C75.6377 66.5252 76.8536 65.4188 78.6694 64.8038C80.6485 64.1339 81.479 63.2825 80.7452 62.6783C80.0717 62.1246 79.498 60.7489 79.4717 59.6211C79.4454 58.4933 78.591 56.3507 77.5731 54.8617C76.011 52.5738 76.0106 51.7797 77.5747 49.7513C79.8124 46.8494 79.4708 46.2783 74.8558 45.2012C71.9156 44.5152 71.1552 44.8616 70.5645 47.1557C69.7124 50.4674 71.6949 51.0899 73.8056 48.1731C74.626 47.0408 75.235 46.7827 75.16 47.6024C74.922 50.1829 71.0952 52.4433 68.6367 51.4549C67.3366 50.9326 66.2079 51.0623 66.1285 51.7412C66.049 52.4213 64.4909 52.7727 62.665 52.5209C60.839 52.2691 57.4689 52.8261 55.1746 53.7579C52.8816 54.6899 50.79 55.2726 50.5276 55.0517C50.2651 54.832 49.5368 55.1145 48.9079 55.6793C48.232 56.2885 48.5082 56.3705 49.5857 55.8812C50.8084 55.3245 51.0655 55.4963 50.3705 56.4058C49.8028 57.1501 48.3483 57.6438 47.1373 57.5022C45.9275 57.3608 44.2164 57.9612 43.3344 58.8347C42.4533 59.7096 40.0419 60.9303 37.9781 61.5481C35.9131 62.1659 34.4619 63.2078 34.7545 63.8624C35.0458 64.517 34.5396 64.9659 33.6298 64.8595C32.7201 64.7531 30.8144 65.4342 29.3949 66.3738C27.9765 67.3136 27.6792 67.769 28.7357 67.3857C29.7923 67.0024 29.2457 67.8169 27.5211 69.1945C25.7964 70.5721 24.5857 72.5255 24.8293 73.5358C25.073 74.5461 24.8025 75.3175 24.2302 75.2506C20.8888 74.8598 22.5394 60.1998 26.6421 53.8289C30.2728 48.1904 30.5538 46.6262 27.9891 46.3263C26.5252 46.1551 26.286 45.2755 27.0385 42.8255C27.7609 40.4753 27.3427 38.6301 25.5513 36.2681C21.8591 31.3999 19.4676 31.6424 19.0418 36.9304ZM37.9305 41.1909C37.8371 41.9894 38.859 42.3119 40.4434 41.9865C42.1912 41.6278 42.7833 41.8707 42.1577 42.69C41.0485 44.1421 32.8165 45.0102 31.8783 43.7732C30.9688 42.574 34.445 39.4211 36.4206 39.6521C37.3376 39.7593 38.017 40.4516 37.9305 41.1909ZM73.9058 58.6421C73.87 58.9482 73.1645 59.5283 72.3386 59.9322C71.4083 60.389 71.2298 60.1536 71.8711 59.3158C72.9022 57.9643 74.0286 57.5917 73.9058 58.6421ZM63.4969 60.2668C62.999 60.6759 62.6802 60.2556 62.7882 59.3324C62.8961 58.4092 63.3033 58.0738 63.6933 58.5867C64.0821 59.1007 63.9937 59.8564 63.4969 60.2668ZM56.0335 61.3359C55.5302 62.2946 55.2784 61.9626 55.3919 60.4885C55.4951 59.155 55.8675 58.4453 56.2203 58.9104C56.573 59.3755 56.4895 60.4675 56.0335 61.3359ZM79.0583 62.8309C79.436 63.7534 79.348 64.0342 78.8636 63.4579C78.3793 62.8804 77.232 62.9173 76.3142 63.5403C75.1421 64.3352 74.4294 64.1906 73.9235 63.0526C73.4813 62.0625 73.6727 61.8206 74.4144 62.4308C75.0823 62.98 76.038 62.8926 76.5389 62.2375C77.7277 60.6811 78.2266 60.7982 79.0583 62.8309ZM60.7828 62.5028C60.2849 62.9119 59.9661 62.4916 60.0741 61.5684C60.182 60.6452 60.5891 60.3098 60.9792 60.8227C61.3679 61.3367 61.2796 62.0924 60.7828 62.5028ZM48.4803 63.0061C47.977 63.9647 47.7252 63.6327 47.8387 62.1586C47.9419 60.8251 48.3143 60.1154 48.6671 60.5805C49.0198 61.0456 48.9363 62.1376 48.4803 63.0061ZM63.5195 64.8656C62.1799 65.9601 62.059 65.7991 62.9245 64.0811C63.5246 62.8924 64.2826 62.2725 64.6099 62.704C64.9373 63.1342 64.447 64.1072 63.5195 64.8656ZM95.8664 66.6055C95.3685 67.0145 94.6426 66.9296 94.2525 66.4167C93.8638 65.9027 94.2709 65.5673 95.1577 65.671C96.0445 65.7747 96.3632 66.195 95.8664 66.6055ZM71.0318 66.0415C70.5268 67.0357 69.7185 67.803 69.2358 67.7465C68.7519 67.6899 68.4557 66.7935 68.5772 65.7545C68.6987 64.7154 69.507 63.9482 70.3732 64.0495C71.2769 64.1551 71.5577 65.0051 71.0318 66.0415ZM57.139 65.6936C57.0175 66.7327 56.3906 67.5211 55.7458 67.4457C55.1022 67.3705 54.9875 66.4953 55.4913 65.5009C55.9963 64.5067 56.6232 63.7183 56.8845 63.7488C57.1458 63.7794 57.2605 64.6546 57.139 65.6936ZM46.8861 65.9845C46.3882 66.3936 45.6623 66.3087 45.2722 65.7958C44.8835 65.2818 45.2906 64.9464 46.1774 65.0501C47.0641 65.1538 47.3829 65.5741 46.8861 65.9845ZM50.2926 67.9788C49.2497 68.9688 48.5611 70.5161 48.7611 71.4165C48.961 72.3183 48.5032 72.9822 47.7423 72.8933C46.9825 72.8044 46.7633 72.2043 47.2556 71.5597C47.748 70.9151 47.1735 70.207 45.9791 69.9856C43.9722 69.6143 43.9738 69.5583 45.9922 69.2556C47.1943 69.0744 48.2602 68.2122 48.3623 67.3394C48.4644 66.4666 49.3669 65.8482 50.3674 65.9652C51.9207 66.1469 51.9096 66.4418 50.2926 67.9788ZM64.2345 67.9379C64.1127 68.9795 61.6944 69.2942 61.2621 68.3244C60.9812 67.6954 61.5445 67.2723 62.5136 67.3856C63.4826 67.4989 64.2568 67.7477 64.2345 67.9379ZM42.7619 70.4418C41.6147 75.0403 40.7401 74.8844 41.1762 70.1593C41.393 67.8126 42.0049 66.25 42.5352 66.6861C43.0667 67.1223 43.1682 68.813 42.7619 70.4418ZM56.7059 69.3977C56.6701 69.7038 56.0556 70.2396 55.3401 70.59C54.6247 70.9404 54.1096 70.6261 54.1953 69.8931C54.281 69.1601 54.8957 68.623 55.561 68.7008C56.2264 68.7786 56.7417 69.0917 56.7059 69.3977ZM36.0751 73.7529C35.6328 74.1161 35.353 73.7195 35.4523 72.8707C35.5515 72.0218 35.054 71.6099 34.3464 71.9562C33.5918 72.3263 33.4802 71.7604 34.0765 70.5828C35.0198 68.7245 35.1562 68.743 35.9856 70.8367C36.4759 72.0763 36.5163 73.3883 36.0751 73.7529ZM31.0867 73.499C31.417 74.2398 31.11 74.7784 30.4059 74.696C29.7018 74.6137 29.191 73.9795 29.272 73.2868C29.353 72.594 29.6588 72.0553 29.9528 72.0897C30.2468 72.1241 30.7563 72.7582 31.0867 73.499ZM81.3749 78.6659C81.3391 78.9719 80.6335 79.552 79.8076 79.9559C78.8774 80.4127 78.6989 80.1774 79.3401 79.3395C80.3713 77.9881 81.4977 77.6155 81.3749 78.6659ZM45.7078 76.0603C45.2099 76.4693 44.4841 76.3844 44.094 75.8716C43.7052 75.3576 44.1124 75.0222 44.9991 75.1259C45.8859 75.2296 46.2046 75.6498 45.7078 76.0603ZM50.2434 78.1623C47.4754 78.9302 48.4929 80.2122 53.7298 82.5571C56.8435 83.9515 56.8435 83.9515 53.0502 83.6177C50.9637 83.4337 47.6152 82.737 45.6098 82.0684C41.9626 80.8529 41.9626 80.8529 44.9146 78.8375C46.5379 77.729 48.9529 76.9709 50.2805 77.1529C52.6258 77.4731 52.625 77.5011 50.2434 78.1623ZM30.0399 77.2066C29.9589 77.8993 29.3156 78.3986 28.6115 78.3163C27.9074 78.2339 27.7329 77.639 28.2253 76.9944C28.7176 76.3498 29.3597 75.8504 29.6537 75.8848C29.9477 75.9191 30.1209 76.5139 30.0399 77.2066ZM64.3279 84.6211C63.83 85.0302 63.1041 84.9453 62.7141 84.4324C62.3253 83.9184 62.7324 83.583 63.6192 83.6867C64.506 83.7904 64.8247 84.2107 64.3279 84.6211ZM27.7891 82.4753C27.681 83.3998 26.8753 84.0716 25.9982 83.969C24.8077 83.8298 24.792 83.3977 25.9394 82.259C26.7841 81.422 27.5899 80.7502 27.7302 80.7666C27.8705 80.783 27.8971 81.5521 27.7891 82.4753Z" fill="#0D260D"/>
<path fill-rule="evenodd" clip-rule="evenodd" d="M38.2153 30.8907C33.4355 32.5021 30.3154 36.3848 33.502 36.7574C34.1456 36.8327 33.3017 38.889 31.6274 41.3258C28.5829 45.7574 28.5829 45.7574 31.6216 42.6018C34.6575 39.4497 38.2274 38.6518 37.9305 41.1909C37.8371 41.9894 38.859 42.3119 40.4434 41.9865C42.4073 41.5829 42.8152 41.8285 41.9853 42.9162C41.2453 43.8855 41.3814 44.1376 42.3791 43.6491C43.2168 43.2389 43.6865 42.4206 43.4232 41.8306C43.16 41.2394 44.1007 39.8965 45.5134 38.8476C46.9251 37.7973 48.8243 35.3574 49.7333 33.4249C51.333 30.0219 51.264 29.8989 47.513 29.4871C45.3833 29.2534 41.2 29.8851 38.2153 30.8907ZM19.0418 36.9304C18.8486 39.3374 19.1969 41.057 19.8173 40.7542C20.4378 40.4501 22.317 42.1444 23.9942 44.5186C25.7513 47.0055 27.4315 48.3255 27.9602 47.6328C28.4654 46.9718 28.2383 46.3554 27.4556 46.2639C26.5688 46.1602 26.4123 44.8665 27.0385 42.8255C27.7609 40.4753 27.3427 38.6301 25.5513 36.2681C21.8591 31.3999 19.4676 31.6424 19.0418 36.9304ZM72.5257 44.9925C73.9735 47.0833 78.7524 48.6571 78.934 47.1041C79.0105 46.4505 78.3011 45.8262 77.3574 45.7159C76.4138 45.6055 74.6868 45.032 73.5209 44.4412C71.943 43.6413 71.6884 43.7839 72.5257 44.9925ZM32.1853 46.4122C33.015 46.8782 34.0643 46.955 34.5149 46.5838C34.9654 46.2126 34.2864 45.8319 33.005 45.737C31.5885 45.6326 31.2669 45.8976 32.1853 46.4122ZM72.4693 51.4102C71.4958 51.8913 69.7024 51.8846 68.4855 51.3951C67.2686 50.9055 66.2079 51.0623 66.1285 51.7412C66.049 52.4213 64.4909 52.7727 62.665 52.5209C60.839 52.2691 57.4689 52.8261 55.1746 53.7579C52.8816 54.6899 50.6882 55.3564 50.301 55.2384C49.915 55.1205 49.1854 55.4029 48.6824 55.8662C48.1782 56.3294 48.5846 56.3361 49.5857 55.8812C50.8084 55.3245 51.0655 55.4963 50.3705 56.4058C49.8028 57.1501 48.3482 57.6438 47.1373 57.5022C45.9275 57.3608 44.2164 57.9612 43.3344 58.8347C42.4533 59.7096 40.0419 60.9303 37.9781 61.5482C35.9131 62.1659 34.4619 63.2078 34.7545 63.8624C35.0458 64.517 34.5396 64.9659 33.6298 64.8595C32.7201 64.7531 30.8144 65.4342 29.3949 66.3738C27.9765 67.3136 27.6792 67.769 28.7357 67.3857C29.7922 67.0025 29.2457 67.8169 27.5211 69.1945C25.7964 70.5721 24.5767 72.4875 24.8085 73.4517C25.0405 74.4146 24.7136 75.3224 24.082 75.4694C23.3924 75.6301 23.2853 76.5253 23.8146 77.7043C24.5712 79.3924 25.0781 79.3891 27.3748 77.6814C28.9435 76.5154 29.8623 74.7933 29.5938 73.5235C29.2213 71.759 29.4054 71.6848 30.5827 73.1209C32.5819 75.562 35.1272 75.6503 35.4032 73.2901C35.5294 72.2107 35.054 71.6099 34.3464 71.9562C33.6049 72.3189 33.4692 71.7808 34.0254 70.6841C34.7665 69.2234 35.3356 69.1597 36.4808 70.4095C38.8571 73.002 42.0629 71.4695 41.4854 68.0187C41.0837 65.6227 41.2513 65.4061 42.3967 66.8422C43.1677 67.8107 44.8403 68.7238 46.1118 68.8725C48.1055 69.1057 48.4018 68.4803 48.2573 64.3358C48.1357 60.8669 48.3058 60.3033 48.8677 62.3147C49.7156 65.3515 52.7654 67.5543 54.766 66.5754C55.458 66.2362 55.9282 64.1349 55.8087 61.9059C55.6371 58.7068 55.7602 58.4404 56.3943 60.6415C58.0203 66.2844 63.9323 66.705 63.2598 61.1303C62.8813 58.0015 62.8813 58.0015 65.0339 60.8398C67.5563 64.1656 73.4124 65.2207 75.8623 62.7904C76.8056 61.8551 77.9372 61.3861 78.3779 61.7491C78.8187 62.1109 79.2315 61.2655 79.2954 59.8699C79.4617 56.2354 74.6855 50.3174 72.4693 51.4102ZM72.6118 59.6615C70.8001 61.1541 68.3895 58.2882 69.849 56.3778C70.6006 55.3933 71.2777 55.4967 72.4458 56.7709C73.5432 57.9678 73.5943 58.8521 72.6118 59.6615ZM22.4956 52.1529C21.0099 54.0984 22.0903 54.5184 24.0557 52.7591C25.028 51.8911 25.2889 51.1173 24.6356 51.0409C23.9835 50.9646 23.02 51.4648 22.4956 52.1529ZM86.2053 64.236C85.732 65.1689 85.8689 65.6764 86.5102 65.362C87.1516 65.0476 88.8426 65.4049 90.2683 66.1538C92.498 67.3261 91.5521 67.8538 83.501 69.933C78.3545 71.2615 66.1204 73.3827 56.3166 74.6453C46.5129 75.908 36.6519 77.6504 34.4033 78.5161C29.5248 80.3956 24.3243 84.1358 24.1164 85.9142C24.0342 86.617 25.2528 86.0535 26.8258 84.662C30.4425 81.4617 41.362 77.7148 47.7912 77.467C51.0063 77.3438 51.8438 77.554 50.1999 78.0729C47.7907 78.8343 47.8023 78.9556 50.4713 80.8802C54.0417 83.4553 63.9182 84.9894 68.9909 83.7569C72.9201 82.8018 83.9875 77.2977 84.1115 76.2372C84.1477 75.9274 82.5539 75.8508 80.569 76.0668C78.5853 76.2829 76.71 75.8964 76.403 75.2081C75.6598 73.5407 94.4808 67.7891 99.3394 68.1989C101.444 68.3773 102.925 67.9799 102.632 67.3162C102.333 66.6416 103.468 66.644 105.206 67.3222C106.914 67.9893 108.369 68.0521 108.438 67.4615C108.588 66.1793 108.178 66.065 96.3266 64.0855C89.1722 62.8901 86.8714 62.9236 86.2053 64.236ZM60.7827 62.5028C60.2849 62.9119 59.9661 62.4916 60.0741 61.5684C60.182 60.6452 60.5891 60.3098 60.9792 60.8227C61.3679 61.3367 61.2796 62.0924 60.7827 62.5028ZM95.8664 66.6055C95.3685 67.0145 94.6426 66.9296 94.2525 66.4167C93.8638 65.9027 94.2709 65.5673 95.1577 65.671C96.0444 65.7747 96.3632 66.195 95.8664 66.6055ZM46.886 65.9845C46.3882 66.3936 45.6623 66.3087 45.2722 65.7958C44.8835 65.2818 45.2906 64.9464 46.1774 65.0501C47.0641 65.1538 47.3829 65.5741 46.886 65.9845Z" fill="#83AC20"/>
<path fill-rule="evenodd" clip-rule="evenodd" d="M36.3124 31.4329C34.361 32.2529 32.6684 33.7555 32.5495 34.7719C32.2854 37.0301 35.1622 37.5452 37.0202 35.573C38.318 34.1965 40.6913 29.8831 40.1298 29.9234C39.9802 29.934 38.2637 30.6129 36.3124 31.4329ZM47.6568 35.2209C47.1057 36.3055 45.1942 36.848 42.8762 36.5769C37.9621 36.0023 35.3514 37.8993 37.3774 40.5721C38.1892 41.6425 39.7909 42.2179 41.0255 41.8848C42.6426 41.4483 42.912 41.7032 42.0416 42.8436C41.2468 43.8831 41.358 44.1489 42.3791 43.6491C43.2168 43.239 43.6806 42.4084 43.4106 41.8024C43.1404 41.1975 43.8457 40.0735 44.9765 39.307C47.2784 37.7441 50.3191 33.6172 49.2593 33.4933C48.8818 33.4492 48.1606 34.2266 47.6568 35.2209ZM24.0758 36.794C23.8042 38.2151 24.0546 39.7649 24.6308 40.2383C25.2069 40.7129 25.6015 41.7536 25.5081 42.5521C25.4146 43.3518 24.001 41.8703 22.3672 39.2612C19.3964 34.5168 19.3964 34.5168 18.9968 37.9338C18.7769 39.8142 19.1254 41.092 19.7717 40.7769C20.417 40.4604 22.317 42.1444 23.9942 44.5186C25.7513 47.0055 27.4315 48.3255 27.9602 47.6328C28.4654 46.9718 28.2383 46.3554 27.4556 46.2639C26.5845 46.162 26.4067 44.8824 26.9987 42.9562C27.5746 41.083 27.2787 38.6839 26.2662 37.0131C24.5691 34.2114 24.5691 34.2114 24.0758 36.794ZM72.5257 44.9925C73.9735 47.0833 78.7524 48.6571 78.934 47.1041C79.0105 46.4505 78.3011 45.8262 77.3574 45.7159C76.4138 45.6055 74.6868 45.032 73.5209 44.4412C71.943 43.6413 71.6884 43.7839 72.5257 44.9925ZM29.4972 44.1471C28.856 44.985 29.0345 45.2203 29.9647 44.7636C30.7906 44.3597 31.4962 43.7796 31.532 43.4735C31.6548 42.4231 30.5284 42.7957 29.4972 44.1471ZM32.1853 46.4123C33.015 46.8782 34.0643 46.955 34.5149 46.5838C34.9654 46.2126 34.2864 45.8319 33.005 45.737C31.5885 45.6326 31.2669 45.8976 32.1853 46.4123ZM73.4656 51.1118C73.3406 51.7407 72.9402 53.2246 72.5774 54.4078C72.2134 55.5908 72.4521 57.0001 73.1076 57.5402C73.8102 58.1177 74.0144 57.8812 73.6053 56.9652C73.2246 56.11 73.4415 55.4715 74.0863 55.5469C74.7323 55.6224 75.2411 54.8367 75.2163 53.801C75.1633 51.5695 73.7942 49.4663 73.4656 51.1118ZM66.7061 52.1509C67.0423 52.9039 67.8611 53.2537 68.5272 52.9269C70.3313 52.0437 70.1076 51.2515 67.982 51.003C66.9452 50.8817 66.371 51.398 66.7061 52.1509ZM56.3415 53.5216C54.7199 54.7631 53.4415 55.3656 53.5005 54.8606C53.5597 54.3543 52.8022 54.844 51.8172 55.9481C50.8322 57.0509 48.8006 57.9074 47.3025 57.851C45.8046 57.7932 44.5315 58.1512 44.4736 58.6462C44.4156 59.1424 42.0749 60.2922 39.2706 61.2027C35.9739 62.2751 34.6539 63.2545 35.5332 63.9778C36.2805 64.5924 37.6624 64.5727 38.6016 63.9344C39.8216 63.1081 40.2644 63.1803 40.1464 64.1891C40.0556 64.9662 40.4748 65.66 41.0772 65.7304C41.6809 65.801 42.0213 64.5475 41.8357 62.9466C41.6489 61.3455 41.856 60.4658 42.2946 60.9933C42.7334 61.5195 45.6662 60.8322 48.8136 59.4639C51.9609 58.0957 55.1132 57.4506 55.8191 58.0311C56.6514 58.7157 56.9297 58.3703 56.6101 57.0448C56.2348 55.4931 56.8877 55.1328 59.3365 55.543C61.107 55.8394 62.8318 56.6003 63.1698 57.2335C63.5076 57.8679 64.2195 57.5273 64.7518 56.4776C65.2854 55.428 65.1617 54.5032 64.4782 54.4233C63.7935 54.3432 63.6776 53.6977 64.2192 52.9887C64.9345 52.0522 64.4808 51.9992 62.5545 52.794C59.2633 54.1556 58.1247 54.0659 59.2904 52.54C60.708 50.6835 59.5368 51.0725 56.3415 53.5216ZM78.3523 57.3224C78.6826 58.0632 79.2248 58.7011 79.5575 58.74C79.8902 58.7789 79.8924 58.2047 79.5621 57.4639C79.2317 56.7231 78.6895 56.0851 78.3568 56.0462C78.0241 56.0073 78.022 56.5816 78.3523 57.3224ZM22.4956 52.1529C21.0099 54.0984 22.0902 54.5184 24.0557 52.7592C25.0279 51.8911 25.2889 51.1173 24.6356 51.0409C23.9835 50.9646 23.02 51.4648 22.4956 52.1529ZM49.0325 55.3684C48.3913 56.2062 48.5698 56.4416 49.5 55.9848C50.326 55.5809 51.0315 55.0008 51.0673 54.6948C51.1901 53.6444 50.0637 54.0169 49.0325 55.3684ZM77.9104 61.1008C78.2408 61.8416 78.783 62.4795 79.1157 62.5184C79.4484 62.5573 79.4505 61.9831 79.1202 61.2423C78.7899 60.5015 78.2477 59.8635 77.915 59.8246C77.5823 59.7857 77.5801 60.36 77.9104 61.1008ZM62.5132 61.2753C61.0899 62.6869 60.5694 62.6911 59.9273 61.2921C59.3075 59.9442 59.0756 59.903 58.9193 61.1142C58.8084 61.9783 58.3159 62.5719 57.8271 62.4317C57.3383 62.2903 56.5121 62.2665 55.994 62.3769C55.476 62.4862 54.4899 62.6543 53.8042 62.7503C53.1185 62.8463 52.2689 63.0329 51.9159 63.1678C51.5629 63.3027 50.845 63.4332 50.3207 63.46C49.7951 63.4867 47.9017 64.63 46.1129 66.0001C42.8665 68.4879 42.8647 68.4928 45.5069 68.8018C47.3482 69.0171 48.2448 68.3445 48.4496 66.5925C48.7395 64.1139 51.0786 63.91 52.3375 66.2531C53.2197 67.8959 55.8239 66.4527 56.0904 64.1743C56.263 62.6982 56.7794 62.6552 58.5935 63.9627C61.2094 65.8492 63.3253 65.2259 63.6471 62.474C63.7766 61.3669 64.4029 61.0239 65.1604 61.6462C65.9601 62.3052 66.1881 62.1174 65.7575 61.1542C64.8659 59.1515 64.6467 59.1591 62.5132 61.2753ZM72.3417 61.531C72.2595 62.2337 70.9355 62.933 69.4005 63.0867C67.8656 63.2405 68.5243 63.5013 70.8656 63.6666C73.207 63.8319 75.0918 63.4025 75.0546 62.7138C74.9618 61.0011 72.5277 59.9403 72.3417 61.531ZM89.9112 63.3455C85.9013 63.9733 85.2769 65.1386 88.6281 65.7399C90.3312 66.0463 92.1021 67.1151 92.5603 68.1147C93.2163 69.5422 93.4527 69.4817 93.6598 67.8361C93.8044 66.6835 93.2769 65.3745 92.4855 64.927C91.6952 64.481 92.2783 64.2134 93.7811 64.3342C95.6048 64.4798 96.4349 65.288 96.2752 66.7592C96.0894 68.4738 96.3123 68.6122 97.2728 67.3827C98.2636 66.1147 99.0169 66.1645 101.053 67.6332C103.067 69.0855 103.438 69.1174 102.847 67.7882C102.289 66.5382 102.89 66.4195 105.206 67.3222C106.914 67.9893 108.369 68.0522 108.438 67.4615C108.507 66.8708 107.888 66.2724 107.061 66.1297C106.235 65.9884 102.6 65.2161 98.9837 64.4141C95.368 63.6108 91.2853 63.1308 89.9112 63.3455ZM83.5333 70.6952C83.4253 71.6183 83.7441 72.0386 84.242 71.6296C84.7388 71.2191 84.8272 70.4635 84.4384 69.9494C84.0484 69.4366 83.6412 69.772 83.5333 70.6952ZM29.3314 66.2872C27.9652 67.1271 27.3872 67.906 28.0488 68.0165C28.7105 68.1258 28.4698 68.6109 27.5133 69.0927C26.132 69.7891 26.1798 70.1879 27.7413 71.0344C29.2855 71.8712 29.6333 71.5391 29.3648 69.4829C29.0779 67.2802 29.4905 67.0131 31.975 67.7901C33.5969 68.2976 35.6107 69.46 36.4481 70.3737C38.1207 72.1997 41.7135 71.7619 41.9543 69.7026C42.1736 67.8273 38.5197 67.6758 38.2528 69.5494C38.1211 70.466 37.2693 69.9693 36.2038 68.3523C33.8779 64.8247 32.4219 64.3876 29.3314 66.2872ZM76.5849 72.436C76.9152 73.1768 77.4575 73.8147 77.7902 73.8536C78.1229 73.8925 78.125 73.3183 77.7947 72.5775C77.4644 71.8367 76.9221 71.1987 76.5895 71.1598C76.2568 71.1209 76.2546 71.6952 76.5849 72.436ZM72.5717 72.7353C73.2271 74.2099 66.0493 76.2035 61.3265 75.8593C60.0449 75.7656 59.6683 76.0497 60.4736 76.5039C61.265 76.9514 61.8468 77.8697 61.7679 78.5447C61.6888 79.2211 61.0614 79.3111 60.3734 78.7455C59.6853 78.1799 57.3742 77.0849 55.2364 76.3115C52.1785 75.2058 51.4424 75.2921 51.7862 76.7149C52.0575 77.8446 51.376 78.4403 49.9709 78.3015C47.8505 78.0918 47.847 78.2063 49.9144 80.284C51.1214 81.4975 53.345 82.3972 54.8558 82.2828C56.3665 82.1683 57.2578 82.5266 56.8365 83.0774C56.4151 83.6294 57.4315 84.2398 59.095 84.4343C60.7584 84.6289 62.522 84.2606 63.0143 83.616C63.5067 82.9714 64.4536 82.5076 65.119 82.5854C65.7844 82.6632 65.9306 83.2484 65.444 83.886C64.9372 84.5494 65.3976 84.8177 66.5245 84.5141C67.606 84.2219 68.5535 83.439 68.6312 82.774C68.7092 82.1077 69.8846 82.0818 71.2442 82.7144C72.9353 83.5007 73.5009 83.383 73.0368 82.3393C72.6626 81.5014 72.7876 81.0194 73.3151 81.2701C74.3757 81.7745 83.9852 77.3178 84.1083 76.2649C84.151 75.8997 82.7808 75.7982 81.064 76.0392C79.0555 76.3201 76.8654 75.5431 74.9268 73.8635C73.2687 72.4274 72.2097 71.9193 72.5717 72.7353ZM62.6825 74.2152C63.0726 74.7281 63.7985 74.813 64.2964 74.4039C64.7932 73.9935 64.4744 73.5732 63.5877 73.4695C62.7009 73.3658 62.2938 73.7012 62.6825 74.2152ZM31.7406 73.1503C31.6326 74.0735 32.3609 74.9247 33.3589 75.0414C34.357 75.1581 35.262 74.4979 35.3699 73.5747C35.478 72.6503 34.7498 71.7991 33.7517 71.6824C32.7537 71.5657 31.8487 72.2259 31.7406 73.1503ZM24.4329 72.7209C24.3249 73.6441 24.6437 74.0644 25.1415 73.6553C25.6384 73.2449 25.7267 72.4892 25.338 71.9752C24.9479 71.4623 24.5408 71.7977 24.4329 72.7209ZM46.0616 76.5268C45.9537 77.45 46.2724 77.8703 46.7703 77.4612C47.2671 77.0508 47.3555 76.2951 46.9668 75.7811C46.5767 75.2682 46.1696 75.6036 46.0616 76.5268ZM25.1168 75.1257C23.5594 75.5653 23.1998 76.3123 23.8486 77.7593C24.6205 79.485 25.1991 79.4135 27.8122 77.2653C30.9461 74.6903 29.8194 73.7963 25.1168 75.1257ZM41.0752 77.2204C40.9673 78.1436 41.286 78.5639 41.7839 78.1548C42.2807 77.7444 42.3691 76.9887 41.9804 76.4747C41.5903 75.9618 41.1832 76.2972 41.0752 77.2204ZM37.3145 77.9194C37.2152 78.7683 36.6305 79.0497 36.0152 78.5437C35.3999 78.0377 34.8262 78.2247 34.7405 78.9577C34.6547 79.6907 35.0962 80.3513 35.7229 80.4246C37.217 80.5993 38.9484 78.2931 38.1324 77.2171C37.7818 76.7548 37.4138 77.0705 37.3145 77.9194ZM29.2443 80.5185C28.7464 80.9276 28.2708 81.8486 28.187 82.5653C28.0948 83.3537 28.6672 83.3453 29.6402 82.5437C30.5237 81.8159 30.9993 80.8948 30.6975 80.497C30.3958 80.0991 29.7411 80.1081 29.2443 80.5185ZM24.1612 85.5313C24.0754 86.2643 24.5905 86.5786 25.306 86.2282C26.0214 85.8778 26.6359 85.342 26.6717 85.0359C26.7075 84.7299 26.1923 84.4168 25.5269 84.339C24.8615 84.2612 24.2469 84.7983 24.1612 85.5313Z" fill="#598917"/>
<path fill-rule="evenodd" clip-rule="evenodd" d="M72.5257 44.9925C73.9735 47.0833 78.7524 48.6571 78.934 47.1041C79.0105 46.4505 78.3011 45.8262 77.3574 45.7159C76.4138 45.6055 74.6868 45.032 73.5209 44.4412C71.943 43.6413 71.6884 43.7839 72.5257 44.9925ZM18.4366 40.1025C18.3287 41.0256 18.6474 41.4459 19.1453 41.0369C19.6421 40.6264 19.7305 39.8708 19.3418 39.3568C18.9517 38.8439 18.5446 39.1793 18.4366 40.1025ZM32.1853 46.4122C33.015 46.8782 34.0643 46.955 34.5149 46.5838C34.9654 46.2126 34.2864 45.8319 33.005 45.737C31.5885 45.6326 31.2669 45.8976 32.1853 46.4122ZM26.16 47.4644C26.0743 48.1974 26.5894 48.5117 27.3048 48.1613C28.0203 47.8109 28.6348 47.275 28.6706 46.969C28.7064 46.6629 28.1911 46.3499 27.5257 46.2721C26.8604 46.1943 26.2457 46.7314 26.16 47.4644ZM58.2615 52.1618C56.9699 53.853 58.989 56.4382 61.1468 55.8556C64.2569 55.0153 64.0068 52.771 60.8743 53.4146C59.0774 53.7841 58.5273 53.5385 59.1948 52.6654C59.7393 51.9516 59.9131 51.3361 59.5804 51.2972C59.2477 51.2583 58.6541 51.6472 58.2615 52.1618ZM72.5979 54.0961C72.9283 54.8369 73.7427 55.5067 74.4081 55.5845C75.0735 55.6623 75.3478 55.1199 75.0175 54.3791C74.6872 53.6382 73.8727 52.9685 73.2074 52.8907C72.542 52.8129 72.2676 53.3553 72.5979 54.0961ZM22.4956 52.1529C21.0099 54.0984 22.0903 54.5184 24.0558 52.7591C25.028 51.8911 25.2889 51.1173 24.6356 51.0409C23.9835 50.9646 23.02 51.4648 22.4956 52.1529ZM49.0325 55.3684C48.3913 56.2062 48.5698 56.4416 49.5 55.9848C50.326 55.5809 51.0315 55.0008 51.0673 54.6948C51.1901 53.6444 50.0637 54.0169 49.0325 55.3684ZM51.8769 56.8002C48.7237 59.0053 48.7237 59.0053 52.2238 57.9132C54.1497 57.3111 55.7797 56.3438 55.8478 55.7619C56.0314 54.1913 55.3547 54.3676 51.8769 56.8002ZM44.95 59.0709C43.5549 59.8959 42.6518 60.8857 42.944 61.2709C43.2362 61.6562 44.6174 61.2968 46.0125 60.4718C47.4078 59.6455 48.3096 58.6556 48.0175 58.2703C47.7253 57.8851 46.3453 58.2446 44.95 59.0709ZM106.651 67.015C106.158 67.6596 106.333 68.2545 107.037 68.3368C107.741 68.4192 108.384 67.9199 108.465 67.2272C108.546 66.5345 108.373 65.9397 108.079 65.9053C107.785 65.871 107.143 66.3704 106.651 67.015ZM37.1918 62.8082C35.6337 64.8487 37.0613 65.4868 38.9646 63.599C40.059 62.5141 40.2355 61.8019 39.4322 61.708C38.7257 61.6254 37.7162 62.1201 37.1918 62.8082ZM31.2095 67.2052C31.1238 67.9382 31.6389 68.2525 32.3543 67.9021C33.0698 67.5517 33.6843 67.0158 33.7201 66.7098C33.7558 66.4037 33.2406 66.0907 32.5752 66.0129C31.9098 65.9351 31.2952 66.4722 31.2095 67.2052ZM23.4794 77.0778C23.7414 78.1617 24.4248 79.1034 24.9982 79.1704C25.5704 79.2373 25.8259 78.4055 25.5651 77.3217C25.3031 76.2378 24.6198 75.2961 24.0464 75.2291C23.4741 75.1621 23.2187 75.994 23.4794 77.0778Z" fill="white"/>
<path fill-rule="evenodd" clip-rule="evenodd" d="M72.5257 44.9925C73.9735 47.0833 78.7524 48.6571 78.934 47.1041C79.0105 46.4505 78.3011 45.8262 77.3575 45.7159C76.4138 45.6055 74.6868 45.032 73.521 44.4412C71.943 43.6413 71.6884 43.7839 72.5257 44.9925ZM18.4366 40.1025C18.3287 41.0256 18.6474 41.4459 19.1453 41.0369C19.6421 40.6264 19.7305 39.8708 19.3418 39.3568C18.9517 38.8439 18.5446 39.1793 18.4366 40.1025ZM32.1853 46.4122C33.015 46.8782 34.0643 46.955 34.5149 46.5838C34.9654 46.2126 34.2864 45.8319 33.005 45.737C31.5885 45.6326 31.2669 45.8976 32.1853 46.4122ZM26.16 47.4644C26.0743 48.1974 26.5894 48.5117 27.3048 48.1613C28.0203 47.8109 28.6348 47.275 28.6706 46.969C28.7064 46.6629 28.1911 46.3499 27.5257 46.2721C26.8604 46.1943 26.2457 46.7314 26.16 47.4644ZM57.9428 52.5803C57.3016 53.4181 57.4801 53.6535 58.4103 53.1967C59.2363 52.7928 59.9418 52.2127 59.9776 51.9066C60.1004 50.8563 58.974 51.2288 57.9428 52.5803ZM22.4956 52.1529C21.0099 54.0984 22.0903 54.5184 24.0558 52.7591C25.028 51.8911 25.2889 51.1173 24.6356 51.0409C23.9835 50.9646 23.02 51.4648 22.4956 52.1529ZM49.0325 55.3684C48.3913 56.2062 48.5698 56.4416 49.5 55.9848C50.326 55.5809 51.0315 55.0008 51.0673 54.6948C51.1901 53.6444 50.0637 54.0169 49.0325 55.3684ZM106.35 67.8314C106.74 68.3443 107.466 68.4292 107.964 68.0202C108.461 67.6097 108.142 67.1894 107.256 67.0857C106.369 66.982 105.962 67.3174 106.35 67.8314ZM23.9174 77.129C23.7959 78.1681 24.2239 79.0799 24.8688 79.1553C25.5124 79.2306 25.8259 78.4055 25.5651 77.3217C25.3031 76.2378 24.8751 75.326 24.6138 75.2954C24.3524 75.2649 24.0389 76.09 23.9174 77.129Z" fill="#808080"/>
<path fill-rule="evenodd" clip-rule="evenodd" d="M72.4191 45.1384C72.7495 45.8792 73.259 46.5133 73.553 46.5477C73.847 46.582 74.1528 46.0433 74.2338 45.3506C74.3148 44.6579 73.804 44.0236 73.0999 43.9413C72.3958 43.859 72.0888 44.3976 72.4191 45.1384ZM75.3209 46.5412C75.2533 47.1193 76.0147 47.6871 77.0127 47.8038C78.0108 47.9205 78.8826 47.5437 78.9502 46.9656C79.0177 46.3888 78.2563 45.821 77.2583 45.7043C76.2602 45.5876 75.3884 45.9644 75.3209 46.5412ZM31.607 46.3242C31.9971 46.8371 32.7229 46.922 33.2208 46.5129C33.7177 46.1025 33.3989 45.6822 32.5122 45.5785C31.6254 45.4748 31.2183 45.8102 31.607 46.3242ZM26.16 47.4644C26.0743 48.1974 26.5894 48.5117 27.3048 48.1613C28.0203 47.8109 28.6348 47.275 28.6706 46.969C28.7064 46.6629 28.1911 46.3499 27.5258 46.2721C26.8604 46.1943 26.2457 46.7314 26.16 47.4644ZM22.4957 52.1529C21.0099 54.0984 22.0903 54.5184 24.0558 52.7592C25.028 51.8911 25.2889 51.1173 24.6356 51.0409C23.9836 50.9646 23.02 51.4648 22.4957 52.1529ZM106.35 67.8314C106.74 68.3443 107.466 68.4292 107.964 68.0202C108.461 67.6097 108.142 67.1894 107.256 67.0857C106.369 66.982 105.962 67.3174 106.35 67.8314ZM23.9174 77.129C23.7959 78.1681 24.2239 79.0799 24.8688 79.1553C25.5124 79.2306 25.8259 78.4055 25.5651 77.3217C25.3031 76.2378 24.8751 75.326 24.6138 75.2954C24.3525 75.2649 24.0389 76.09 23.9174 77.129Z" fill="#404040"/>
<path d="M136.248 77.576C134.168 77.576 132.12 77.208 130.104 76.472C128.088 75.704 126.28 74.552 124.68 73.016L128.424 68.408C129.544 69.4 130.808 70.168 132.216 70.712C133.656 71.224 135.048 71.48 136.392 71.48C137.896 71.48 139 71.208 139.704 70.664C140.44 70.12 140.808 69.384 140.808 68.456C140.808 67.784 140.616 67.256 140.232 66.872C139.88 66.456 139.368 66.088 138.696 65.768C138.024 65.448 137.224 65.096 136.296 64.712L132.264 63.032C131.176 62.552 130.136 61.944 129.144 61.208C128.184 60.44 127.4 59.512 126.792 58.424C126.216 57.304 125.928 55.992 125.928 54.488C125.928 52.728 126.408 51.16 127.368 49.784C128.328 48.376 129.64 47.256 131.304 46.424C132.968 45.56 134.888 45.128 137.064 45.128C138.952 45.128 140.776 45.464 142.536 46.136C144.296 46.808 145.832 47.768 147.144 49.016L143.4 53.624C142.376 52.856 141.32 52.264 140.232 51.848C139.176 51.432 138.12 51.224 137.064 51.224C135.848 51.224 134.872 51.48 134.136 51.992C133.432 52.472 133.08 53.16 133.08 54.056C133.08 54.664 133.288 55.192 133.704 55.64C134.12 56.056 134.68 56.424 135.384 56.744C136.12 57.032 136.952 57.368 137.88 57.752L141.816 59.384C143.128 59.896 144.232 60.536 145.128 61.304C146.056 62.072 146.776 63 147.288 64.088C147.8 65.144 148.056 66.408 148.056 67.88C148.056 69.608 147.592 71.208 146.664 72.68C145.736 74.152 144.392 75.336 142.632 76.232C140.872 77.128 138.744 77.576 136.248 77.576ZM153.368 77V45.704H164.12C166.424 45.704 168.504 46.024 170.36 46.664C172.248 47.272 173.752 48.312 174.872 49.784C175.992 51.256 176.552 53.256 176.552 55.784C176.552 58.216 175.992 60.216 174.872 61.784C173.752 63.352 172.264 64.52 170.408 65.288C168.552 66.024 166.52 66.392 164.312 66.392H160.424V77H153.368ZM160.424 60.776H163.88C165.832 60.776 167.272 60.344 168.2 59.48C169.128 58.616 169.592 57.384 169.592 55.784C169.592 54.12 169.08 52.968 168.056 52.328C167.064 51.656 165.608 51.32 163.688 51.32H160.424V60.776ZM194.682 77.576C191.866 77.576 189.386 76.92 187.242 75.608C185.13 74.296 183.466 72.424 182.25 69.992C181.066 67.56 180.474 64.632 180.474 61.208C180.474 57.816 181.066 54.92 182.25 52.52C183.466 50.12 185.13 48.296 187.242 47.048C189.386 45.768 191.866 45.128 194.682 45.128C197.498 45.128 199.962 45.768 202.074 47.048C204.218 48.296 205.882 50.12 207.066 52.52C208.282 54.92 208.89 57.816 208.89 61.208C208.89 64.632 208.282 67.56 207.066 69.992C205.882 72.424 204.218 74.296 202.074 75.608C199.962 76.92 197.498 77.576 194.682 77.576ZM194.682 71.48C196.122 71.48 197.354 71.064 198.378 70.232C199.434 69.368 200.234 68.184 200.778 66.68C201.354 65.144 201.642 63.32 201.642 61.208C201.642 59.128 201.354 57.352 200.778 55.88C200.234 54.376 199.434 53.224 198.378 52.424C197.354 51.624 196.122 51.224 194.682 51.224C193.274 51.224 192.042 51.624 190.986 52.424C189.93 53.224 189.114 54.376 188.538 55.88C187.994 57.352 187.722 59.128 187.722 61.208C187.722 63.32 187.994 65.144 188.538 66.68C189.114 68.184 189.93 69.368 190.986 70.232C192.042 71.064 193.274 71.48 194.682 71.48ZM214.774 77V45.704H223.606C226.806 45.704 229.574 46.248 231.91 47.336C234.278 48.424 236.102 50.12 237.382 52.424C238.694 54.696 239.35 57.624 239.35 61.208C239.35 64.792 238.694 67.752 237.382 70.088C236.102 72.424 234.31 74.168 232.006 75.32C229.734 76.44 227.078 77 224.038 77H214.774ZM221.83 71.288H223.174C224.966 71.288 226.518 70.968 227.83 70.328C229.174 69.688 230.214 68.632 230.95 67.16C231.718 65.688 232.102 63.704 232.102 61.208C232.102 58.712 231.718 56.76 230.95 55.352C230.214 53.912 229.174 52.904 227.83 52.328C226.518 51.72 224.966 51.416 223.174 51.416H221.83V71.288ZM257.916 77.576C255.1 77.576 252.62 76.92 250.476 75.608C248.364 74.296 246.7 72.424 245.484 69.992C244.3 67.56 243.708 64.632 243.708 61.208C243.708 57.816 244.3 54.92 245.484 52.52C246.7 50.12 248.364 48.296 250.476 47.048C252.62 45.768 255.1 45.128 257.916 45.128C260.732 45.128 263.196 45.768 265.308 47.048C267.452 48.296 269.116 50.12 270.3 52.52C271.516 54.92 272.124 57.816 272.124 61.208C272.124 64.632 271.516 67.56 270.3 69.992C269.116 72.424 267.452 74.296 265.308 75.608C263.196 76.92 260.732 77.576 257.916 77.576ZM257.916 71.48C259.356 71.48 260.588 71.064 261.612 70.232C262.668 69.368 263.468 68.184 264.012 66.68C264.588 65.144 264.876 63.32 264.876 61.208C264.876 59.128 264.588 57.352 264.012 55.88C263.468 54.376 262.668 53.224 261.612 52.424C260.588 51.624 259.356 51.224 257.916 51.224C256.508 51.224 255.276 51.624 254.22 52.424C253.164 53.224 252.348 54.376 251.772 55.88C251.228 57.352 250.956 59.128 250.956 61.208C250.956 63.32 251.228 65.144 251.772 66.68C252.348 68.184 253.164 69.368 254.22 70.232C255.276 71.064 256.508 71.48 257.916 71.48ZM278.009 77V45.704H288.761C291.065 45.704 293.145 46.024 295.001 46.664C296.889 47.272 298.393 48.312 299.513 49.784C300.633 51.256 301.193 53.256 301.193 55.784C301.193 58.216 300.633 60.216 299.513 61.784C298.393 63.352 296.905 64.52 295.049 65.288C293.193 66.024 291.161 66.392 288.953 66.392H285.065V77H278.009ZM285.065 60.776H288.521C290.473 60.776 291.913 60.344 292.841 59.48C293.769 58.616 294.233 57.384 294.233 55.784C294.233 54.12 293.721 52.968 292.697 52.328C291.705 51.656 290.249 51.32 288.329 51.32H285.065V60.776Z" fill="url(#paint0_linear_1002_67)"/>
<path d="M61.5 9.5C89.2154 9.5 111.5 30.4164 111.5 56C111.5 81.5836 89.2154 102.5 61.5 102.5C33.7846 102.5 11.5 81.5836 11.5 56C11.5 30.4164 33.7846 9.5 61.5 9.5Z" stroke="url(#paint1_linear_1002_67)" stroke-width="3"/>
<defs>
<linearGradient id="paint0_linear_1002_67" x1="123" y1="56.5" x2="317" y2="56.5" gradientUnits="userSpaceOnUse">
<stop offset="0.370209" stop-color="#052F02"/>
<stop offset="0.716379" stop-color="#458609"/>
</linearGradient>
<linearGradient id="paint1_linear_1002_67" x1="23" y1="87" x2="113" y2="56" gradientUnits="userSpaceOnUse">
<stop stop-color="#0D260D"/>
<stop offset="1" stop-color="#117C09"/>
</linearGradient>
</defs>
</svg>
